<?xml version="1.0" encoding="UTF-8"?>
<svg id="heart-char" xmlns="http://www.w3.org/2000/svg" version="1.1" viewBox="0 0 1024 768">
  <!-- Generator: Adobe Illustrator 29.1.0, SVG Export Plug-In . SVG Version: 2.1.0 Build 142)  -->
  <path d="M660.8,605.4c-32.9,0-64.3-7.5-93.4-22.3-20.5-10.4-39.3-24.4-55.3-41-16,16.6-34.8,30.5-55.3,41-29.1,14.8-60.6,22.3-93.4,22.3-114,0-206.7-92.7-206.7-206.7s92.7-206.7,206.7-206.7,64.3,7.5,93.4,22.3c20.5,10.4,39.3,24.4,55.3,41,16-16.6,34.8-30.6,55.3-41,29.1-14.8,60.6-22.3,93.4-22.3,114,0,206.7,92.7,206.7,206.7s-92.7,206.7-206.7,206.7ZM512,478.4l15.9,21c31.8,41.9,80.3,66,132.8,66,91.9,0,166.7-74.8,166.7-166.7s-74.8-166.7-166.7-166.7-101,24.1-132.8,66l-15.9,21-15.9-21c-31.8-41.9-80.3-66-132.8-66-91.9,0-166.7,74.8-166.7,166.7s74.8,166.7,166.7,166.7,101-24.1,132.8-66l15.9-21Z"/>
  <path d="M312.4,329h77.8c13,0,22.9,3.2,29.9,9.6,6.9,6.4,10.4,14.4,10.4,23.9s-2.5,14.8-7.4,20.5c-3.3,3.8-8.1,6.8-14.5,9,9.7,2.3,16.8,6.3,21.3,12,4.6,5.7,6.8,12.8,6.8,21.3s-1.6,13.2-4.9,18.8c-3.2,5.6-7.7,10-13.3,13.2-3.5,2-8.7,3.5-15.8,4.4-9.4,1.2-15.6,1.8-18.6,1.8h-71.7v-134.5ZM354.3,381.7h18.1c6.5,0,11-1.1,13.5-3.3,2.5-2.2,3.8-5.5,3.8-9.7s-1.3-7-3.8-9.2c-2.5-2.2-7-3.3-13.3-3.3h-18.3v25.5ZM354.3,434.6h21.2c7.2,0,12.2-1.3,15.1-3.8,2.9-2.5,4.4-5.9,4.4-10.2s-1.5-7.2-4.4-9.6c-2.9-2.4-8-3.6-15.3-3.6h-21.1v27.2Z"/>
  <path d="M612,329h77.8c13,0,22.9,3.2,29.9,9.6,6.9,6.4,10.4,14.4,10.4,23.9s-2.5,14.8-7.4,20.5c-3.3,3.8-8.1,6.8-14.5,9,9.7,2.3,16.8,6.3,21.3,12,4.6,5.7,6.8,12.8,6.8,21.3s-1.6,13.2-4.9,18.8c-3.2,5.6-7.7,10-13.3,13.2-3.5,2-8.7,3.5-15.8,4.4-9.4,1.2-15.6,1.8-18.6,1.8h-71.7v-134.5ZM653.9,381.7h18.1c6.5,0,11-1.1,13.5-3.3,2.5-2.2,3.8-5.5,3.8-9.7s-1.3-7-3.8-9.2c-2.5-2.2-7-3.3-13.3-3.3h-18.3v25.5ZM653.9,434.6h21.2c7.2,0,12.2-1.3,15.1-3.8,2.9-2.5,4.4-5.9,4.4-10.2s-1.5-7.2-4.4-9.6c-2.9-2.4-8-3.6-15.3-3.6h-21.1v27.2Z"/>
</svg>