<?xml version="1.0" encoding="UTF-8"?>
<svg id="cloud-char" xmlns="http://www.w3.org/2000/svg" version="1.1" viewBox="0 0 1024 768">
  <!-- Generator: Adobe Illustrator 29.1.0, SVG Export Plug-In . SVG Version: 2.1.0 Build 142)  -->
  <defs>
    <style>
      .st0 {
        fill: #ff7bac;
      }
    </style>
  </defs>
  <path id="body" class="st0" d="M851.7,432.3c-24.1-24.1-52.9-40.6-83.4-49.6,27.5-9.4,53.4-25.1,75.4-47,76.8-76.8,76.8-201.3,0-278.1-76.8-76.8-201.3-76.8-278.1,0-38.4,38.4-57.6,88.7-57.6,139s0,.6,0,.9c0,0,0,0,0,0,0-.3,0-.6,0-.9,0-50.3-19.2-100.7-57.6-139-76.8-76.8-201.3-76.8-278.1,0s-76.8,201.3,0,278.1c24.1,24.1,52.9,40.6,83.4,49.6-27.5,9.4-53.4,25.1-75.4,47-76.8,76.8-76.8,201.3,0,278.1,76.8,76.8,201.3,76.8,278.1,0,34.1-34.1,53-77.6,56.9-122.2.5,0,1-.1,1.5-.2,3.8,44.6,22.7,88.2,56.9,122.3,76.8,76.8,201.3,76.8,278.1,0,76.8-76.8,76.8-201.3,0-278.1Z"/>
  <g id="face">
    <rect id="Reye" x="612.6" y="366.5" width="142.6" height="39.4"/>
    <path id="mount" d="M555,366.5c0,23.8-19.2,43-43,43s-43-19.2-43-43h-35.8c0,43.4,35.3,78.7,78.7,78.7s78.7-35.3,78.7-78.7h-35.8Z"/>
    <rect id="Leye" x="268.8" y="366.5" width="142.6" height="39.4"/>
  </g>
</svg>