<?xml version="1.0" encoding="UTF-8"?>
<svg id="heart-char" xmlns="http://www.w3.org/2000/svg" version="1.1" viewBox="0 0 1024 768">
  <!-- Generator: Adobe Illustrator 29.1.0, SVG Export Plug-In . SVG Version: 2.1.0 Build 142)  -->
  <defs>
    <style type="text/css">
      .st0 {
        fill: #ff7bac;
      }
    </style>
  </defs>
  <path id="body" class="st0" d="M848.3,411.7l-13,13-330,330L162.2,411.7c-91.1-91.1-91.1-238.9,0-330C207.8,36.1,267.5,13.3,327.2,13.3s119.4,22.8,165,68.3l13,13,13-13c45.6-45.6,105.3-68.3,165-68.3s119.4,22.8,165,68.3c91.1,91.1,91.1,238.9,0,330Z"/>
  <g id="face">
    <rect id="Reye" x="612.6" y="426.7" width="142.6" height="39.4"/>
    <path id="mount" d="M555,426.7c0,23.8-19.2,43-43,43s-43-19.2-43-43h-35.8c0,43.4,35.3,78.7,78.7,78.7s78.7-35.3,78.7-78.7h-35.8.2Z"/>
    <rect id="Leye" x="268.8" y="426.7" width="142.6" height="39.4"/>
  </g>
</svg>