<?xml version="1.0" encoding="utf-8"?>
<!-- Generator: Adobe Illustrator 28.6.0, SVG Export Plug-In . SVG Version: 9.03 Build 54939)  -->
<svg version="1.0" id="logo" xmlns="http://www.w3.org/2000/svg" xmlns:xlink="http://www.w3.org/1999/xlink" x="0px" y="0px"
	 viewBox="0 0 291 291" style="enable-background:new 0 0 291 291;" xml:space="preserve">
<path id="logo-mouth" d="M145.5,247.4c-56.2,0-101.9-45.7-101.9-101.9h16.8c0,46.9,38.2,85,85.1,85s85-38.2,85-85h16.8
	C247.4,201.7,201.7,247.4,145.5,247.4z"/>
<path id="logo-body" d="M145.5,291C65.3,291,0,225.7,0,145.5S65.3,0,145.5,0S291,65.3,291,145.5S225.7,291,145.5,291z M145.5,24
	C78.5,24,24,78.5,24,145.5S78.5,267,145.5,267S267,212.5,267,145.5S212.5,24,145.5,24z"/>
<g id="logo-eyes">
	<rect x="100.7" y="145.5" width="18" height="48"/>
	<rect x="172.3" y="145.5" width="18" height="48"/>
</g>
</svg>
