<?xml version="1.0" encoding="utf-8"?>
<!-- Generator: Adobe Illustrator 28.6.0, SVG Export Plug-In . SVG Version: 9.03 Build 54939)  -->
<svg version="1.0" id="smiley" xmlns="http://www.w3.org/2000/svg" xmlns:xlink="http://www.w3.org/1999/xlink" x="0px" y="0px"
	 viewBox="0 0 1409 1232.9" style="enable-background:new 0 0 1409 1232.9;" xml:space="preserve">
<style type="text/css">
	.st0{fill:#FF7BAC;enable-background:new    ;}
</style>
<path id="heartBody" class="st0" d="M176.1,704.5l-66.6-66.6C39.4,567.7,0,472.8,0,373.7C0,167.3,167.3,0,373.7,0
	c99.1,0,194,39.4,264.2,109.5l66.6,66.6l66.6-66.6C841.3,39.4,936.2,0,1035.3,0C1241.7,0,1409,167.3,1409,373.7
	c0,99.1-39.4,194-109.5,264.2l-66.6,66.6l-528.4,528.4L176.1,704.5z"/>
<path id="mouth" d="M781.4,475.5c0,42.5-34.4,76.9-76.9,76.9c-42.5,0-76.9-34.4-76.9-76.9h-64c0,77.7,63.2,140.9,140.9,140.9
	c77.7,0,140.9-63.2,140.9-140.9H781.4z"/>
<g id="eyes">
	<g>
		<rect x="269.4" y="475.5" width="255.1" height="70.5"/>
	</g>
	<g>
		<rect x="884.5" y="475.5" width="255.1" height="70.5"/>
	</g>
</g>
</svg>
