<?xml version="1.0" encoding="UTF-8"?>
<svg id="tri-char" xmlns="http://www.w3.org/2000/svg" version="1.1" viewBox="0 0 1024 768">
  <!-- Generator: Adobe Illustrator 29.1.0, SVG Export Plug-In . SVG Version: 2.1.0 Build 142)  -->
  <defs>
    <style>
      .st0 {
        fill: #ff7bac;
      }
    </style>
  </defs>
  <path id="body" class="st0" d="M896,384c0-35.5-72.2-66.7-180.6-84.2,64.3-89.1,93.3-162.2,68.2-187.3s-98.2,3.9-187.3,68.2C578.7,72.2,547.5,0,512,0s-66.7,72.2-84.2,180.6c-89.1-64.3-162.2-93.3-187.3-68.2s3.9,98.2,68.2,187.3c-108.5,17.5-180.6,48.7-180.6,84.2s72.2,66.7,180.6,84.2c-64.3,89.1-93.3,162.2-68.2,187.3s98.2-3.9,187.3-68.2c17.5,108.5,48.7,180.6,84.2,180.6s66.7-72.2,84.2-180.6c89.1,64.3,162.2,93.3,187.3,68.2s-3.9-98.2-68.2-187.3c108.5-17.5,180.6-48.7,180.6-84.2Z"/>
  <g id="face">
    <rect id="Reye" x="612.6" y="361.5" width="142.6" height="39.4"/>
    <path id="mount" d="M555,361.5c0,23.8-19.2,43-43,43s-43-19.2-43-43h-35.8c0,43.4,35.3,78.7,78.7,78.7s78.7-35.3,78.7-78.7h-35.8.2Z"/>
    <rect id="Leye" x="268.8" y="361.5" width="142.6" height="39.4"/>
  </g>
</svg>